<?xml version="1.0" encoding="UTF-8" standalone="no"?>
<!-- Created with Inkscape (http://www.inkscape.org/) -->

<svg
   xmlns:dc="http://purl.org/dc/elements/1.1/"
   xmlns:cc="http://creativecommons.org/ns#"
   xmlns:rdf="http://www.w3.org/1999/02/22-rdf-syntax-ns#"
   xmlns:svg="http://www.w3.org/2000/svg"
   xmlns="http://www.w3.org/2000/svg"
   xmlns:sodipodi="http://sodipodi.sourceforge.net/DTD/sodipodi-0.dtd"
   xmlns:inkscape="http://www.inkscape.org/namespaces/inkscape"
   width="1182"
   height="256"
   id="svg2"
   version="1.1"
   inkscape:version="0.48.5 r10040"
   sodipodi:docname="channel-guardian.svg">
  <defs
     id="defs4">
    <clipPath
       id="clipPath6193"
       clipPathUnits="userSpaceOnUse">
      <path
         id="path6195"
         d="m 1600,2252.8 5020,0 0,3650 -5020,0 0,-3650 z"
         inkscape:connector-curvature="0" />
    </clipPath>
    <linearGradient
       id="linearGradient6181"
       spreadMethod="pad"
       gradientTransform="matrix(-3.593e-5,822,822,3.593e-5,411,0)"
       gradientUnits="userSpaceOnUse"
       y2="0"
       x2="1"
       y1="0"
       x1="0">
      <stop
         id="stop6183"
         offset="0"
         style="stop-opacity:1;stop-color:#c01e25" />
      <stop
         id="stop6185"
         offset="1"
         style="stop-opacity:1;stop-color:#e62426" />
    </linearGradient>
    <clipPath
       id="clipPath6177"
       clipPathUnits="userSpaceOnUse">
      <path
         id="path6179"
         d="M 8220,0 0,0 l 0,8220 8220,0 0,-8220 m -6620,5902.8 0,-3650 5020,0 0,3650 -5020,0"
         inkscape:connector-curvature="0" />
    </clipPath>
  </defs>
  <sodipodi:namedview
     id="base"
     pagecolor="#505050"
     bordercolor="#666666"
     borderopacity="1.0"
     inkscape:pageopacity="1"
     inkscape:pageshadow="2"
     inkscape:zoom="0.70710678"
     inkscape:cx="650.38405"
     inkscape:cy="63.680693"
     inkscape:document-units="px"
     inkscape:current-layer="g7288"
     showgrid="false"
     borderlayer="true"
     inkscape:showpageshadow="false"
     inkscape:window-width="2560"
     inkscape:window-height="1403"
     inkscape:window-x="2560"
     inkscape:window-y="0"
     inkscape:window-maximized="1" />
  <metadata
     id="metadata7">
    <rdf:RDF>
      <cc:Work
         rdf:about="">
        <dc:format>image/svg+xml</dc:format>
        <dc:type
           rdf:resource="http://purl.org/dc/dcmitype/StillImage" />
        <dc:title></dc:title>
      </cc:Work>
    </rdf:RDF>
  </metadata>
  <g
     inkscape:label="Layer 1"
     inkscape:groupmode="layer"
     id="layer1"
     transform="translate(0,-796.36218)">
    <g
       transform="matrix(630.025,0,0,-458.9,-77.5125,1218.8747)"
       id="g6197" />
    <g
       id="g7288"
       transform="translate(551.5,989.9982)">
      <g
         style="display:inline;enable-background:new"
         id="g27482"
         transform="matrix(0.65935426,0,0,0.65935436,-527.30338,-144.07965)">
        <g
           style="fill:#b2c9d9;fill-opacity:1;stroke:none"
           id="g2406"
           transform="matrix(1.3484642,0,0,1.3484642,-6.1476944,-338.67431)">
          <path
             style="fill:#b2c9d9;fill-opacity:1;fill-rule:evenodd;stroke:none"
             id="path2384"
             d="m 86.474584,296.25659 -26.030614,0 0.147065,-27.79541 -38.531192,5.73556 0,21.47158 -17.5008088,2.64718 0,17.05961 18.0890708,0 -0.147065,74.85641 c 0.1269,2.69303 4.45101,26.98398 30.736714,25.44235 29.816124,-1.74869 32.354436,-5.1473 35.001618,-6.91208 -0.210194,0.21862 0,-14.5595 0,-14.5595 l -16.177218,0.44119 c 0,0 -9.118069,-0.58826 -10.588725,-10.73579 -0.05639,0.008 -0.294131,-68.23844 -0.294131,-68.23844 l 25.295286,0.14706 0,-19.55972 z"
             inkscape:connector-curvature="0" />
          <path
             style="fill:#b2c9d9;fill-opacity:1;fill-rule:evenodd;stroke:none"
             id="path2396"
             d="m 142.46982,243.20266 -52.024464,7.46358 0.07353,9.92693 13.824174,6.17676 0.14706,129.93247 -13.08884,5.1473 0.147065,10.66226 63.826485,0.0735 0,-10.58872 -12.86824,-5.5885 0.0735,-76.84178 c 0,0 7.27975,-3.23545 17.35374,-3.23545 10.074,0 14.70656,6.47089 14.70656,10.44166 0,3.97077 0,69.85617 0,69.85617 l -11.76525,5.22083 0,10.73579 63.67942,0 0,-10.29459 -13.08884,-6.39736 0,-78.75364 c 0,0 0.29412,-25.00115 -28.6778,-23.7511 -17.62761,0.10663 -30.11168,5.66203 -42.39166,15.36836 0,-0.0368 -1e-5,-65.48096 0.0735,-65.5545 z"
             inkscape:connector-curvature="0" />
          <path
             style="fill:#b2c9d9;fill-opacity:1;fill-rule:evenodd;stroke:none"
             id="path2400"
             d="m 298.66243,342.42709 -32.34123,1.45588 c 0,0 -0.21376,-16.5252 3.08095,-27.01765 2.62922,-8.37309 7.94565,-11.13773 14.07758,-11.14708 10.21375,-0.0156 12.76631,5.71179 13.91431,12.748 1.65196,10.12507 1.38058,23.84866 1.26839,23.96085 z m 37.85276,15.07871 -70.09,0 c 0,0 -0.41527,34.01805 35.77294,34.26507 15.28669,0.10399 29.84544,-4.26363 29.84544,-4.26363 l 0,10.97105 c 0,0 -11.23104,16.32661 -42.22038,17.36652 -39.22434,-0.60448 -60.10608,-15.65914 -63.01861,-56.15519 -0.31197,-25.06186 6.08841,-63.83944 56.77914,-66.24233 51.72849,-2.45209 54.40938,38.4216 52.93147,64.05851 z"
             inkscape:connector-curvature="0" />
        </g>
        <g
           style="fill:#00417b;fill-opacity:1"
           id="g3233"
           transform="matrix(1.3484642,0,0,1.3484642,-6.1476944,-338.67431)">
          <path
             style="fill:#00417b;fill-opacity:1;fill-rule:evenodd;stroke:none"
             id="path3181"
             d="m 419.65175,327.36096 0,11.10346 c 0,0 1.91185,20.00092 -13.23591,20.07445 -15.14776,0.0735 -14.70656,-11.61818 -14.70656,-20.07445 0,-8.45628 0,-13.08884 0,-13.08884 0,0 -0.8824,-18.97147 13.4565,-19.045 14.3389,-0.0735 14.41243,14.78009 14.48597,21.03038 z m 46.76686,-34.85455 -32.2809,5.95616 c 0,0 -16.76548,-6.10322 -28.6778,-6.10322 -8.01541,0 -49.34332,3.17699 -50.85027,39.46065 -1.06389,25.61589 20.55476,35.17515 20.40769,35.17515 -0.14707,0 -20.58919,12.64764 -20.73625,28.38366 -0.14707,15.73602 18.53027,20.14799 18.53027,20.14799 0.0385,-0.3847 -28.23941,4.29296 -28.2366,23.5305 0.003,17.79555 29.41312,26.47181 60.59103,26.61888 31.17791,0.14706 65.4442,-8.67687 65.4442,-45.59034 0,-36.91347 -35.88401,-32.64857 -35.88401,-32.64857 l -46.1786,0 c 0,0 -6.91209,-0.73533 -7.20622,-7.79448 -0.29413,-7.05915 4.7061,-8.82394 4.7061,-8.82394 0,0 9.8534,2.94132 20.14799,2.94132 10.29459,0 50.73764,-4.2646 50.73764,-39.26652 0,-15.9001 -12.50058,-25.00116 -12.50058,-25.00116 l 22.36397,5.99241 -0.37766,-22.97849 z m -84.93039,130.15307 c 0,0 -5.22083,3.45605 -5.22083,11.83879 0,8.38274 7.64741,17.05961 28.97192,17.05961 21.32452,0 31.69265,-7.42333 31.69265,-19.85386 0,-8.08994 -9.19161,-9.11807 -9.19161,-9.11807 l -46.25213,0.0735 z"
             inkscape:connector-curvature="0" />
          <path
             style="fill:#00417b;fill-opacity:1;fill-rule:evenodd;stroke:none"
             id="path3188"
             d="m 522.52415,293.16821 -52.06123,8.08861 0,10.14752 13.38297,6.47089 0,65.4442 c 0,0 0.69586,32.13929 32.20737,32.5015 25.58942,0.29413 38.38413,-17.50081 38.38413,-17.50081 l 0,17.20668 50.4435,-6.02969 0,-9.26513 -12.89039,-7.44228 0,-99.32736 -51.81848,8.08861 0,9.70633 13.6771,6.91208 0,69.85617 c 0,0 -3.52957,2.94131 -14.85362,3.82371 -11.32406,0.88239 -16.47135,-9.8534 -16.47135,-9.8534 l 0,-88.82763 z"
             inkscape:connector-curvature="0" />
          <path
             style="fill:#00417b;fill-opacity:1;fill-rule:evenodd;stroke:none"
             id="path3190"
             d="m 615.5233,301.55859 c 0,0 24.85387,-9.04722 45.34012,-9.04722 20.48625,0 50.12371,6.9674 50.12371,32.44522 0,25.47781 0,70.60995 0,70.60995 l 12.68691,6.65543 0,8.42328 c 0,0 -9.04722,4.88758 -22.35808,4.88758 -13.31086,0 -24.85387,-6.75942 -24.85387,-16.95055 -2.89284,0.052 -3.94564,16.74257 -35.149,16.74257 -36.39688,0 -33.58912,-32.23724 -33.58912,-32.86118 0,-0.62395 -1.04656,-24.06525 25.47782,-29.11751 26.20575,-4.99157 38.37271,-6.96741 38.37271,-6.96741 l -0.12816,-23.70997 c 0,0 -2.15964,-14.35077 -14.53458,-14.24678 -12.37494,0.104 -12.27095,0.20799 -12.27095,0.20799 l -8.73525,23.81396 -20.48625,0 0.10399,-30.88536 z m 57.03912,88.86039 0,-32.02925 c 0,0 -26.10291,-2.33974 -26.15376,18.56241 -0.0383,15.73579 9.85017,17.57449 14.35077,17.57449 5.14811,-0.32883 8.56541,-2.14122 11.80299,-4.10765 z"
             inkscape:connector-curvature="0" />
          <path
             style="fill:#00417b;fill-opacity:1;fill-rule:evenodd;stroke:none"
             id="path3195"
             d="m 776.91749,292.0954 -50.85165,8.00732 0,10.60709 13.10288,6.23947 0,78.72125 -12.16696,6.23947 0,9.98315 66.97026,0 0,-9.56718 -16.01462,-6.44745 0.10399,-64.99444 c 0,0 10.19112,-4.05565 20.48624,-4.05565 10.29512,0 15.39069,1.1439 15.39069,1.1439 l 0,-34.00509 c 0,0 -21.79234,-6.82566 -37.22882,23.60598 10e-6,0.10399 0.20799,-25.47782 0.20799,-25.47782 z"
             inkscape:connector-curvature="0" />
          <path
             style="fill:#00417b;fill-opacity:1;fill-rule:evenodd;stroke:none"
             id="path3197"
             d="m 877.68486,253.30672 0,10.29512 12.7909,6.13548 0,27.86961 c 0,0 -8.94323,-4.26363 -19.75831,-4.26363 -10.81507,0 -55.01129,1.66385 -56.25918,62.39465 -1.24789,60.7308 45.96407,59.89888 45.5481,59.89888 -0.41596,0 21.63015,0.62394 31.61329,-12.27095 -0.052,0 -0.10399,12.21895 -0.10399,12.21895 l 49.96773,-6.08348 0,-9.87915 -12.01098,-6.13548 -0.10399,-148.2913 -51.68357,8.1113 z m 12.73891,60.21085 0,78.92924 c 0,0 -4.12279,2.07982 -11.80299,2.07982 -12.48948,0 -23.05763,-8.49923 -22.98204,-35.87693 0.0663,-23.91786 3.55717,-42.70897 14.01794,-47.62858 10.4566,-4.91765 20.28211,1.83847 20.76709,2.49645 z"
             inkscape:connector-curvature="0" />
          <path
             style="fill:#00417b;fill-opacity:1;fill-rule:nonzero;stroke:none"
             id="path3220"
             d="m 998.4286,264.56393 c 0,11.73055 -9.52045,21.251 -21.25101,21.251 -11.73055,0 -21.251,-9.52045 -21.251,-21.251 0,-11.73055 9.52045,-21.251 21.251,-21.251 11.73056,0 21.25101,9.52045 21.25101,21.251 z m -0.8825,28.01601 -52.79656,7.50035 0,10.14753 13.82417,6.76502 0,78.82717 -12.64765,5.73556 0,10.73579 63.53234,0 0,-10.29459 -12.05937,-5.88263 0.14707,-103.5342 z"
             inkscape:connector-curvature="0" />
          <path
             style="fill:#00417b;fill-opacity:1;fill-rule:evenodd;stroke:none"
             id="path3224"
             d="m 1021.6479,301.42743 c 0,0 24.8539,-9.04722 45.3401,-9.04722 20.4863,0 50.1237,6.9674 50.1237,32.44522 0,25.47781 0,70.60995 0,70.60995 l 12.6869,6.65543 0,8.42328 c 0,0 -9.0472,4.88758 -22.358,4.88758 -13.3109,0 -24.8539,-6.75942 -24.8539,-16.95055 -2.8928,0.052 -3.9457,16.74257 -35.149,16.74257 -36.3969,0 -33.5891,-32.23724 -33.5891,-32.86118 0,-0.62395 -1.0466,-24.06525 25.4778,-29.11751 26.2057,-4.99157 38.3727,-6.96741 38.3727,-6.96741 l -0.1282,-23.70997 c 0,0 -2.1596,-14.35077 -14.5345,-14.24678 -12.375,0.104 -12.271,0.20799 -12.271,0.20799 l -8.7352,23.81396 -20.4863,0 0.104,-30.88536 z m 57.0391,88.86039 0,-32.02925 c 0,0 -26.1029,-2.33974 -26.1537,18.56241 -0.038,15.73579 9.8501,17.57449 14.3507,17.57449 5.1481,-0.32883 8.5654,-2.14122 11.803,-4.10765 z"
             inkscape:connector-curvature="0" />
          <path
             style="fill:#00417b;fill-opacity:1;fill-rule:evenodd;stroke:none"
             id="path3228"
             d="m 1183.5841,292.28581 -51.9142,8.23568 0,9.85339 13.9713,6.61796 0,79.41543 -12.7947,5.1473 0,11.02992 63.5323,0 0,-10.88286 -11.7652,-5.58849 0,-76.76825 c 0,0 6.3238,-2.94131 15.5889,-2.94131 9.2652,0 16.4714,4.11783 16.4714,13.2359 0,9.11807 0,66.47366 0,66.47366 l -13.0355,6.4056 -0.053,9.77162 64.7089,0 0,-10.44166 -12.6476,-5.29436 0,-73.67988 c 0,0 0.8824,-29.41312 -28.972,-29.41312 -29.8543,0 -42.9431,15.73602 -42.9431,15.73602 l -0.1471,-16.91255 z"
             inkscape:connector-curvature="0" />
        </g>
      </g>
    </g>
  </g>
</svg>
